<?xml version="1.0" standalone="no"?><!DOCTYPE svg PUBLIC "-//W3C//DTD SVG 1.1//EN" "http://www.w3.org/Graphics/SVG/1.1/DTD/svg11.dtd"><svg t="1710122032573" class="icon" viewBox="0 0 1636 1024" version="1.1" xmlns="http://www.w3.org/2000/svg" p-id="5393" xmlns:xlink="http://www.w3.org/1999/xlink" width="319.53125" height="200"><path d="M1003.66755845 954.96875H119.3222231V69.03125h884.36109879z m-833.91625879-50.44484h783.47141877V119.47609002h-783.47141877z" fill="#13227a" p-id="5394"></path><path d="M1519.00888975 954.96875H978.44513845v-50.44484H1468.56404974V438.63428621H978.44513845v-50.44484H1519.00888975V954.96875z" fill="#13227a" p-id="5395"></path><path d="M1519.00888975 438.55546634H1175.32188993v-50.44484002H1468.56404974V119.47609002H1175.32188993V69.03125H1519.00888975v369.52421632zM978.508194 69.03125h196.81369593v50.44484H978.508194z" fill="#13227a" p-id="5396"></path><path d="M977.40471384 954.82687369c-94.97817467 0-196.1831351-18.91681522-292.65889194-54.76417898-101.0946119-37.54987781-196.86098717-93.82740242-276.94217036-162.76342872C319.20990154 661.04873814 249.48567465 570.32684599 200.53841594 467.86076477 146.54667325 354.5963357 119.16458332 229.0675044 119.16458332 94.66353462h50.44484001c0 126.82147988 25.72686799 245.05157393 76.45546062 351.41136517 45.90480398 96.16047556 111.40427611 181.28614362 194.65402515 252.99663633 149.34825422 128.55552171 349.96107682 205.31049841 536.68580474 205.31049756C1162.74220816 904.38203368 1277.72491472 817.82184159 1341.58492923 745.30738397c80.03389109-90.98987958 125.9544594-212.02596783 125.95445938-332.06892186 0-60.37616738-15.60637219-146.77871968-89.9652193-215.55710619C1324.16569531 148.27694049 1250.48470111 119.9490102 1175.4322376 119.9490102c-117.8044651 0-171.44939961 88.78291842-171.44939876 171.2759955 0 31.4492049 11.03480837 56.38787228 32.5684494 74.09085883a102.98629351 102.98629351 0 0 0 63.32403787 22.85781735c45.06931128 0 49.92462772-35.01187193 49.92462773-50.06650317h50.44484001c0 25.7899244-8.24457849 49.78275141-23.2046264 67.5487935-12.61120957 15.03886779-36.33604914 32.96254967-77.24366122 32.96254969a152.91092124 152.91092124 0 0 1-95.3407472-34.30249122c-23.25191851-19.10598277-50.99658008-54.22820323-50.99658093-113.12255275 0-55.37897548 19.62619593-109.90669479 53.84986725-149.63200685C1035.68426774 108.67774129 1087.80009229 69.4726424 1175.35341772 69.4726424a353.60256372 353.60256372 0 0 1 126.77418862 23.3780305 338.92626758 338.92626758 0 0 1 109.62294217 67.78525317A323.16225562 323.16225562 0 0 1 1489.0572653 269.23420798c19.23209477 44.01312237 28.97425458 92.4559331 28.97425543 144.02001758 0 132.13395219-50.44484 265.30832982-138.5183777 365.39404492a509.83969059 509.83969059 0 0 1-169.84146978 127.1840524c-70.57548391 32.48962949-148.67040129 48.99455081-232.26695941 48.99455081z" fill="#13227a" p-id="5397"></path></svg>