<?xml version="1.0" standalone="no"?><!DOCTYPE svg PUBLIC "-//W3C//DTD SVG 1.1//EN" "http://www.w3.org/Graphics/SVG/1.1/DTD/svg11.dtd"><svg t="1709692558284" class="icon" viewBox="0 0 1638 1024" version="1.1" xmlns="http://www.w3.org/2000/svg" p-id="5596" xmlns:xlink="http://www.w3.org/1999/xlink" width="319.921875" height="200"><path d="M819.2 1016.3968c452.4288 0 819.2-79.616 819.2-177.8688 0-98.2272-366.7712-177.8688-819.2-177.8688-452.4288 0-819.2 79.616-819.2 177.8688 0 98.2272 366.7712 177.8688 819.2 177.8688z" fill="#F5F5F5" p-id="5597"></path><path d="M479.872 49.8176C493.952 27.8784 515.5072 12.8 539.9808 12.8h558.4384c24.4992 0 46.0288 15.104 60.1088 37.0432L1420.8 344.96v252.4672h-1203.2v-252.416L479.872 49.792z m60.1088-11.4176c-13.5168 0-28.1088 8.576-38.9888 25.9328l-0.5888 0.9216L243.2 354.7136v217.088h1152v-217.088L1137.9712 65.2288l-0.5632-0.896c-10.88-17.3824-25.472-25.9584-38.9888-25.9584H539.9808z" fill="#D9D9D9" p-id="5598"></path><path d="M1065.2928 430.4128c0-40.7808 25.4464-74.4704 57.0112-74.496H1408v460.8768c0 53.9392-33.792 98.1504-75.52 98.1504h-1026.56c-41.728 0-75.52-44.2368-75.52-98.1504V355.9168h285.696c31.5648 0 57.0112 33.6128 57.0112 74.4192v0.5376c0 40.7808 25.728 73.728 57.2672 73.728h377.6512c31.5392 0 57.2672-33.2288 57.2672-74.0096v-0.1792z" fill="#FAFAFA" p-id="5599"></path><path d="M1122.304 343.1168H1420.8v473.6768c0 29.5424-9.2416 56.8832-24.7552 77.1072-15.5392 20.224-37.888 33.8432-63.5648 33.8432h-1026.56c-25.6768 0-48.0512-13.6448-63.5648-33.8688-15.5136-20.224-24.7552-47.5392-24.7552-77.0816V343.1168h298.496c20.6336 0 38.3488 11.008 50.5088 26.9568 12.16 15.8976 19.3024 37.2992 19.3024 60.2624v0.5376c0 36.8896 22.784 60.928 44.4672 60.928h377.6512c21.6064 0 44.4672-24.2688 44.4672-61.2096v-0.1792c0-22.9632 7.168-44.3648 19.3024-60.288 12.1344-15.9488 29.8752-26.9824 50.5088-27.008z m-879.104 25.6v448.0768c0 24.3712 7.6544 46.1056 19.456 61.4912 11.8272 15.36 27.2128 23.8592 43.264 23.8592h1026.56c16.0512 0 31.4624-8.448 43.264-23.8336 11.8016-15.3856 19.456-37.12 19.456-61.5168V368.7168H1122.304c-10.9312 0-21.7088 5.8112-30.1568 16.9216-8.4736 11.1104-14.0544 26.9312-14.0544 44.7744v0.1792c0 44.5952-28.5952 86.784-70.0672 86.784H630.3744c-41.4208 0-70.0672-41.8048-70.0672-86.5024v-0.5376c0-17.8176-5.5808-33.6384-14.0544-44.7488-8.448-11.0592-19.2256-16.8704-30.1568-16.8704H243.2z" fill="#D9D9D9" p-id="5600"></path></svg>